<?xml version="1.0" encoding="utf-8"?>
<!-- Generator: Adobe Illustrator 18.1.1, SVG Export Plug-In . SVG Version: 6.00 Build 0)  -->
<!DOCTYPE svg PUBLIC "-//W3C//DTD SVG 1.1//EN" "http://www.w3.org/Graphics/SVG/1.1/DTD/svg11.dtd">
<svg version="1.1" id="Layer_1" xmlns="http://www.w3.org/2000/svg" xmlns:xlink="http://www.w3.org/1999/xlink" x="0px" y="0px"
	 viewBox="250.9 593.5 595.3 478.1" enable-background="new 250.9 593.5 595.3 478.1" xml:space="preserve">
<desc>Created with Fabric.js 1.4.11</desc>
<g>
	<g transform="translate(318.5 218.5) scale(1 0.73)">
		<path fill="#231F20" d="M122.5,661.4c-19.8-15.1-53.9-22.2-84.8,1.1l21.7,2.1c0,0-17.4,4.2-27.7,16.6l22.7-0.8
			c0,0-14.3,9.5-21.1,18.2c0,0,41.2-8.2,90.4-3.7c0,0-2.4-9-21.7-13.7c0,0,7.9-4.2,24.6-2.4c0,0-7.1-10.3-24.3-14.3
			C102.4,664.3,110.3,660.9,122.5,661.4z"/>
	</g>
	<g transform="translate(360.5 249)">
		<path fill="#231F20" d="M254.6,567.2c-15.3-31.7-43.1-44.4-74.8-44.4s-59.4,12.7-74.8,44.4c-12.7,26.4,3.2,54.2,31.2,43.3
			c18.8-7.1,29.1-7.7,43.6-7.7c14.5,0,24.8,0.3,43.6,7.7C251.4,621.3,267.5,593.6,254.6,567.2z"/>
	</g>
	<g transform="translate(347.5 309.6766283524905) scale(0.7 0.5)">
		<path fill="#231F20" d="M113,1244.9c74,104.4,241.8,106,317.1,0C361.1,1272.4,182,1272.4,113,1244.9z"/>
		<polygon fill="#FFFFFF" points="269.2,1297.8 247.5,1297.8 244.6,1271.1 269.2,1271.1 		"/>
		<polygon fill="#FFFFFF" points="295.6,1297.8 273.9,1297.8 273.9,1271.1 298.5,1271.1 		"/>
	</g>
	<g transform="translate(311.5 174) rotate(12.93) scale(1.55 1.97)">
		<polygon fill="#231F20" points="181.2,214.5 72.7,231.4 70.4,205.8 181.2,195.5 		"/>
	</g>
	<g transform="translate(290.5 284.7107843137255) scale(0.77 0.77)">
		<path fill="#231F20" d="M489.8,926.3l6.3-131.3c0.5-10.8-7.9-20.6-18.5-22.2l-128.1-16.6c-10.8-1.3-28.3-1.3-39.1,0l-128.1,16.6
			c-10.8,1.3-19,11.4-18.5,22.2l6.3,131.3c-71.9-16.6-136.3-44.1-188.9-79.8C26.4,948,165.4,1022,330,1022s303.6-74,348.8-175.4
			C626.1,882.2,561.7,909.7,489.8,926.3z M175.9,927.9l21.9-98.8c2.4-10.6,12.9-19.8,23.8-20.9l88.8-7.7c10.8-0.8,28.5-0.8,39.1,0
			l88.8,7.7c10.8,0.8,21.4,10.3,23.8,20.9l21.9,98.8c-48.4,10.8-100.1,16.6-154,16.6S224.5,938.5,175.9,927.9z"/>
	</g>
	<g transform="translate(416.5 187) rotate(349.1) scale(1.47 1.78) matrix(-1 0 0 1 42 0) ">
		<polygon fill="#231F20" points="-32.3,271.6 -140.9,288.5 -143.3,262.8 -32.3,252.5 		"/>
	</g>
	<g transform="translate(430.5 218.5) scale(1 0.73) matrix(-1 0 0 1 36 0) ">
		<path fill="#231F20" d="M-183.7,661.4c-19.8-15.1-53.9-22.2-84.8,1.1l21.7,2.1c0,0-17.4,4.2-27.7,16.6l22.7-0.8
			c0,0-14.3,9.5-21.1,18.2c0,0,41.2-8.2,90.4-3.7c0,0-2.4-9-21.7-13.7c0,0,7.9-4.2,24.6-2.4c0,0-7.1-10.3-24.3-14.3
			C-203.8,664.3-195.9,660.9-183.7,661.4z"/>
	</g>
	<g transform="translate(281 189.70731707317077) scale(0.72 0.71)">
		<path fill="#939598" d="M777.8,752.6h-46c-4.2-85.3-77.1-153.5-166.4-153.5s-162.2,68.2-166.2,153.5h-27.5h-27.5
			c-4.2-85.3-77.1-153.5-166.1-153.5c-89.3,0-162.2,68.2-166.5,153.5h-46c-4,0-7.4,3.4-7.4,7.7s3.4,7.7,7.4,7.7h46
			c4.2,85.3,77.2,153.5,166.5,153.5S340.3,853.3,344.3,768h27.5h27.5c4.2,85.3,77.2,153.5,166.2,153.5
			c89.3,0,162.2-68.2,166.2-153.5h46c4.2,0,7.4-3.4,7.4-7.7C785.2,756.1,781.8,752.6,777.8,752.6z M178.1,906.2
			c-83.2,0-150.9-65.5-150.9-145.8s67.6-145.8,150.9-145.8S329,680.1,329,760.4C328.7,840.6,261,906.2,178.1,906.2z M565.4,906.2
			c-83.2,0-150.9-65.5-150.9-145.8s67.6-145.8,150.9-145.8s150.9,65.5,150.9,145.8C716.3,840.6,648.6,906.2,565.4,906.2z"/>
	</g>
</g>
</svg>
